# xmcd CD database file
#
# Track frame offsets:
#	150
#	13125
#	32335
#	48937
#	66282
#	84362
#
# Disc length: 1468 seconds
#
# Revision: 0
# Processed by: cddbd v1.5.1PL2 Copyright (c) Steve Scherf et al.
# Submitted via: CDex 1.51
#
DISCID=3f05ba06
DTITLE=showbitz - showbitz
DYEAR=1900
DGENRE=パンク (一般)
TTITLE0=All traffic...
TTITLE1=9 o'clock
TTITLE2=Best kid
TTITLE3=An ideal world
TTITLE4=Control
TTITLE5=Air of my town
EXTD=
EXTT0=
EXTT1=
EXTT2=
EXTT3=
EXTT4=
EXTT5=
PLAYORDER=
